<?xml version="1.0" encoding="UTF-8"?>
<svg version="1.1" xmlns="http://www.w3.org/2000/svg" width="180" height="180">
<path d="M0 0 C1.60101563 -0.02320313 1.60101563 -0.02320313 3.234375 -0.046875 C9.36998877 -0.01634956 13.44356489 0.19323256 18 4.5 C18.66029496 8.46176976 18.09440813 11.09658679 16 14.5 C15.34 14.5 14.68 14.5 14 14.5 C13.73960938 15.08910156 13.47921875 15.67820312 13.2109375 16.28515625 C9.27045742 23.49242143 2.03265912 26.66994214 -5.36328125 29.359375 C-7.96427337 30.48454492 -9.37228493 31.19818071 -11 33.5 C-11.39903439 35.67933331 -11.39903439 35.67933331 -11.25 38 C-11.23453125 38.7734375 -11.2190625 39.546875 -11.203125 40.34375 C-11.06471705 42.6822807 -11.06471705 42.6822807 -10 45.5 C-9.34 45.5 -8.68 45.5 -8 45.5 C-8 46.16 -8 46.82 -8 47.5 C-7.41605469 47.77585938 -6.83210938 48.05171875 -6.23046875 48.3359375 C-4.09400066 49.45094186 -2.26750039 50.72330161 -0.3125 52.125 C5.36339824 55.71199888 10.42686706 54.96400758 16.8125 53.8125 C20 53.5 20 53.5 22.19921875 54.98046875 C22.79347656 55.48191406 23.38773437 55.98335937 24 56.5 C24.07347656 54.80230469 24.07347656 54.80230469 24.1484375 53.0703125 C24.22346514 51.58851661 24.29901297 50.106747 24.375 48.625 C24.4059375 47.87863281 24.436875 47.13226563 24.46875 46.36328125 C24.7734375 40.7265625 24.7734375 40.7265625 27 38.5 C29.58064129 38.35502015 32.04943884 38.31322455 34.625 38.375 C35.33140625 38.38402344 36.0378125 38.39304688 36.765625 38.40234375 C38.51056098 38.42592397 40.25532295 38.46179539 42 38.5 C42.103125 37.71625 42.20625 36.9325 42.3125 36.125 C43 33.5 43 33.5 46 31.5 C52.94214876 30.83884298 52.94214876 30.83884298 56.5 33.0625 C58.58392818 36.44888329 58.55802097 38.59385318 58 42.5 C55.86865786 45.61503851 54.53269198 46.36150009 50.875 47.3125 C48 47.5 48 47.5 46 46.5 C41.34005103 46.04741503 36.67317512 45.79738387 32 45.5 C32 50.78 32 56.06 32 61.5 C33.876875 60.489375 35.75375 59.47875 37.6875 58.4375 C43.23790098 55.44882255 43.23790098 55.44882255 46.67578125 55.6796875 C48.90229773 56.46551685 50.56600912 57.35103932 52.5 58.6875 C55.77680086 60.8617267 55.77680086 60.8617267 58.75 59.875 C60.52518 58.79016778 62.2689904 57.6540064 64 56.5 C67.1875 56.875 67.1875 56.875 70 57.5 C70 58.82 70 60.14 70 61.5 C69.34 61.5 68.68 61.5 68 61.5 C68 62.16 68 62.82 68 63.5 C67.01 63.995 67.01 63.995 66 64.5 C67.32 65.49 68.64 66.48 70 67.5 C69.125 71.375 69.125 71.375 68 72.5 C59.82311953 72.68583819 53.73422245 71.10852092 47 66.5 C47 65.84 47 65.18 47 64.5 C45.02 65.16 43.04 65.82 41 66.5 C41.32613281 67.04527344 41.65226562 67.59054688 41.98828125 68.15234375 C46.70676292 76.29485636 50.13499335 83.04502947 48 92.5 C45.19918208 100.36896463 41.69066734 104.63696069 34.34375 108.4296875 C24.31217986 113.0107712 12.94659265 112.67890949 2.5234375 109.5 C-1.314805 107.97896272 -4.66535221 105.91738078 -8 103.5 C-7.67 101.85 -7.34 100.2 -7 98.5 C0.40251627 99.25279826 0.40251627 99.25279826 3.4453125 100.51171875 C8.79295499 102.58045506 14.47619638 102.36304456 19.8671875 100.51953125 C24.72541358 98.3399319 24.72541358 98.3399319 28.28125 94.546875 C29.44765852 91.22514639 28.89840383 88.85404096 28 85.5 C23.05396513 80.41657527 16.89388718 79.16720261 10.1875 77.625 C1.7818205 75.60292381 -4.89259673 72.47518229 -12 67.5 C-12 71.29557881 -11.49821059 73.12902617 -10 76.5 C-9.34 76.5 -8.68 76.5 -8 76.5 C-8 77.16 -8 77.82 -8 78.5 C-6.7934375 78.87125 -6.7934375 78.87125 -5.5625 79.25 C-3 80.5 -3 80.5 -2.0625 82.4375 C-2 84.5 -2 84.5 -4 87.5 C-6.16874252 86.99396008 -7.99967627 86.50016187 -10 85.5 C-10 87.81 -10 90.12 -10 92.5 C-11.65 92.5 -13.3 92.5 -15 92.5 C-15.99 89.53 -15.99 89.53 -17 86.5 C-18.485 86.995 -18.485 86.995 -20 87.5 C-21.5625 86.25 -21.5625 86.25 -23 84.5 C-22.83394098 81.84305562 -22.21086001 80.73616321 -20.4375 78.75 C-19.963125 78.3375 -19.48875 77.925 -19 77.5 C-19.680625 76.46875 -20.36125 75.4375 -21.0625 74.375 C-22.64115039 71.60396474 -23.00231558 70.61809436 -22.9375 67.3125 C-22.00087492 64.50262476 -20.95214358 62.706771 -19 60.5 C-19.3609375 59.94570312 -19.721875 59.39140625 -20.09375 58.8203125 C-20.5578125 58.09585938 -21.021875 57.37140625 -21.5 56.625 C-21.9640625 55.90570313 -22.428125 55.18640625 -22.90625 54.4453125 C-24 52.5 -24 52.5 -24 50.5 C-24.721875 50.850625 -25.44375 51.20125 -26.1875 51.5625 C-29.44737484 52.64912495 -30.7575115 52.53799174 -34 51.5 C-37.87922704 47.93591326 -40.79037425 44.20695254 -41.4375 38.9375 C-41.293125 38.133125 -41.14875 37.32875 -41 36.5 C-39.3125 35.6875 -39.3125 35.6875 -37 35.5 C-33.96830161 38.03816609 -32.25830363 39.72508911 -31 43.5 C-30.34 43.5 -29.68 43.5 -29 43.5 C-29.09539063 42.52160156 -29.19078125 41.54320312 -29.2890625 40.53515625 C-29.90819888 33.21350864 -30.41066013 26.5587593 -28 19.5 C-27.4121875 17.7365625 -27.4121875 17.7365625 -26.8125 15.9375 C-20.63168762 4.21526962 -13.03224469 -0.18887311 0 0 Z M-7 9.5 C-7.33 10.82 -7.66 12.14 -8 13.5 C-5.525 13.995 -5.525 13.995 -3 14.5 C-2.67 13.51 -2.34 12.52 -2 11.5 C-2.33 10.84 -2.66 10.18 -3 9.5 C-4.32 9.5 -5.64 9.5 -7 9.5 Z M49 37.5 C49 38.49 49 39.48 49 40.5 C49.99 40.5 50.98 40.5 52 40.5 C52 39.84 52 39.18 52 38.5 C51.01 38.17 50.02 37.84 49 37.5 Z M-10 54.5 C-10 55.82 -10 57.14 -10 58.5 C-9.01 58.5 -8.02 58.5 -7 58.5 C-7 57.18 -7 55.86 -7 54.5 C-7.99 54.5 -8.98 54.5 -10 54.5 Z M7 62.5 C6.67 63.82 6.34 65.14 6 66.5 C9.62912042 68.11588573 12.81367277 68.81263031 16.75 69.25 C23.69743645 70.32937977 29.12916139 73.07630848 33.68359375 78.5078125 C35.87516252 81.82442993 36.13664854 84.56436189 36.125 88.4375 C36.12886719 89.71947266 36.12886719 89.71947266 36.1328125 91.02734375 C36.00930254 93.32680852 35.64420687 95.29640348 35 97.5 C35.66 97.5 36.32 97.5 37 97.5 C39.70809599 94.16695878 40.66014641 91.05836739 40.47265625 86.74609375 C38.93999591 79.4627905 34.0564938 73.69823246 28.015625 69.6171875 C23.50144524 67.11514213 19.12128705 66.18961897 14 66.5 C14 65.84 14 65.18 14 64.5 C11.04622502 62.13019987 11.04622502 62.13019987 7 62.5 Z " fill="#1A2F45" transform="translate(74,37.5)"/>
<path d="M0 0 C0.86367187 0.02835938 1.72734375 0.05671875 2.6171875 0.0859375 C19.55533076 1.11695492 35.39993997 8.82973402 48 20 C48 20.66 48 21.32 48 22 C48.66 22 49.32 22 50 22 C65.38424413 38.67798312 70.87321367 58.40470573 70.12304688 80.72216797 C69.27215528 96.47379215 62.59773921 111.36060266 52 123 C51.33484375 123.74507813 50.6696875 124.49015625 49.984375 125.2578125 C36.87323839 139.17070926 19.9757613 146.89172904 1 148 C-0.07894531 148.06380859 -0.07894531 148.06380859 -1.1796875 148.12890625 C-18.7333414 148.62570778 -33.64511188 143.82938745 -48 134 C-49.33224609 133.08927734 -49.33224609 133.08927734 -50.69140625 132.16015625 C-64.85227598 121.67801011 -74.47908551 105.20579306 -77.35253906 87.87353516 C-79.51750469 72.4898636 -78.69437744 54.83039995 -71 41 C-70.44828125 39.9996875 -69.8965625 38.999375 -69.328125 37.96875 C-66.52523704 33.03375068 -63.78974902 28.25570176 -60 24 C-59.34 24 -58.68 24 -58 24 C-58 23.34 -58 22.68 -58 22 C-57.34 22 -56.68 22 -56 22 C-56 21.34 -56 20.68 -56 20 C-55.34 20 -54.68 20 -54 20 C-54 19.34 -54 18.68 -54 18 C-48.43191392 12.9644128 -42.06684348 9.2968635 -35.3125 6.125 C-34.40552368 5.69634644 -34.40552368 5.69634644 -33.48022461 5.2590332 C-22.83424167 0.45818607 -11.53793855 -0.38812637 0 0 Z M-24 11 C-24.91394531 11.24363281 -25.82789063 11.48726562 -26.76953125 11.73828125 C-42.45427792 16.58378864 -55.21877939 28.90466242 -63 43 C-67.91990964 53.16435157 -70.38757101 62.5958524 -70.3125 73.875 C-70.30758545 74.75341553 -70.3026709 75.63183105 -70.29760742 76.53686523 C-70.06426552 89.47118616 -65.71854214 101.55726651 -58 112 C-57.55527344 112.66257812 -57.11054687 113.32515625 -56.65234375 114.0078125 C-46.86957194 127.80464547 -32.24761308 135.59880235 -16 139 C-15.19175781 139.185625 -14.38351563 139.37125 -13.55078125 139.5625 C-3.47966462 141.28985844 6.29796471 139.8195001 16 137 C16.91265625 136.75636719 17.8253125 136.51273438 18.765625 136.26171875 C27.18728398 133.66380933 34.294093 128.61925638 41 123 C41 122.34 41 121.68 41 121 C41.66 121 42.32 121 43 121 C43 120.34 43 119.68 43 119 C43.57878906 118.78085938 44.15757812 118.56171875 44.75390625 118.3359375 C53.11153139 113.36496742 58.06222195 99.99014289 60.56201172 90.97265625 C64.53650741 74.74848827 62.84029714 57.15330491 54.625 42.5625 C50.24702708 35.45679294 50.24702708 35.45679294 45 29 C44.34 29 43.68 29 43 29 C43 28.34 43 27.68 43 27 C42.34 27 41.68 27 41 27 C40.505 25.515 40.505 25.515 40 24 C26.74318914 12.69823397 9.45771234 7.04195137 -7.91796875 7.67578125 C-13.43646915 8.25630791 -18.67355158 9.46956501 -24 11 Z " fill="#1C3045" transform="translate(94,16)"/>
<path d="M0 0 C2 1.5 2 1.5 3 4 C2.93159086 7.05210015 2.53262153 9.99678464 2 13 C-4.5 16 -4.5 16 -9 16 C-9 16.66 -9 17.32 -9 18 C-10.6796875 19.62109375 -10.6796875 19.62109375 -12.875 21.4375 C-17.36321384 25.16159141 -19.1713623 27.8975568 -20.125 33.6875 C-20.29257813 34.68136719 -20.46015625 35.67523438 -20.6328125 36.69921875 C-20.75398438 37.45847656 -20.87515625 38.21773437 -21 39 C-21.99 39 -22.98 39 -24 39 C-24.33 39.99 -24.66 40.98 -25 42 C-29.11486921 44.88040845 -32.60905321 45.64093997 -37.48046875 44.90234375 C-42.80544989 42.99525748 -47.32220881 39.23602735 -51 35 C-52.1734604 30.68275732 -51.93350437 27.35635371 -51 23 C-46.07534522 23.42900804 -43.89925732 25.61046293 -40.4375 29 C-36.40438473 33.3836086 -36.40438473 33.3836086 -31 35 C-28.03121518 32.97236841 -27.45859557 30.74177649 -26.8125 27.3125 C-26.57466797 26.10013672 -26.57466797 26.10013672 -26.33203125 24.86328125 C-26.16767578 23.94095703 -26.16767578 23.94095703 -26 23 C-25.34 23 -24.68 23 -24 23 C-23.67 22.01 -23.34 21.02 -23 20 C-22.34 20 -21.68 20 -21 20 C-21 19.34 -21 18.68 -21 18 C-20.34 18 -19.68 18 -19 18 C-19 17.34 -19 16.68 -19 16 C-17.625 14.375 -17.625 14.375 -16 13 C-15.34 13 -14.68 13 -14 13 C-14 12.34 -14 11.68 -14 11 C-13.34 11 -12.68 11 -12 11 C-12.061875 9.741875 -12.12375 8.48375 -12.1875 7.1875 C-12.1944144 3.27394757 -12.1944144 3.27394757 -10.625 1.0625 C-6.80272223 -1.43668162 -4.45340427 -1.01568869 0 0 Z M-6 6 C-6 6.99 -6 7.98 -6 9 C-5.01 8.67 -4.02 8.34 -3 8 C-3 7.34 -3 6.68 -3 6 C-3.99 6 -4.98 6 -6 6 Z " fill="#1B2E44" transform="translate(116,46)"/>
</svg>
