<?xml version="1.0" standalone="no"?>
<!DOCTYPE svg PUBLIC "-//W3C//DTD SVG 20010904//EN"
 "http://www.w3.org/TR/2001/REC-SVG-20010904/DTD/svg10.dtd">
<svg version="1.0" xmlns="http://www.w3.org/2000/svg"
 width="300.000000pt" height="296.000000pt" viewBox="0 0 300.000000 296.000000"
 preserveAspectRatio="xMidYMid meet">
<metadata>
Created by potrace 1.10, written by Peter Selinger 2001-2011
</metadata>
<g transform="translate(0.000000,296.000000) scale(0.100000,-0.100000)"
fill="#000000" stroke="none">
<path d="M1350 2921 c0 -5 10 -13 22 -17 21 -6 20 -7 -8 -19 -27 -12 -27 -13
-9 -20 11 -5 28 -15 38 -23 9 -8 20 -12 24 -9 3 4 -4 16 -17 27 l-23 20 22 0
c12 0 24 6 27 14 9 24 45 26 74 6 15 -11 30 -17 33 -14 2 3 21 -2 41 -10 31
-13 36 -13 36 0 0 16 16 19 25 4 11 -18 35 -11 35 10 0 24 -34 27 -76 8 -22
-10 -28 -10 -32 0 -2 6 -15 12 -28 12 -13 0 -24 5 -24 10 0 16 -70 11 -87 -6
-9 -9 -19 -11 -22 -6 -9 14 -51 25 -51 13z"/>
<path d="M1300 2895 c0 -22 -4 -25 -40 -25 -24 0 -39 -4 -37 -11 1 -6 -3 -13
-9 -16 -6 -2 -14 10 -18 27 -7 36 -26 31 -26 -6 0 -14 6 -24 14 -24 8 0 16 -5
18 -11 2 -7 13 -9 26 -5 12 4 19 12 16 18 -4 7 11 8 46 3 49 -7 52 -6 45 11
-4 11 -10 29 -12 42 -7 30 -23 28 -23 -3z"/>
<path d="M1684 2899 c-5 -8 3 -10 25 -7 39 6 43 -17 4 -27 -28 -7 -28 -7 -5
-18 12 -5 22 -14 22 -19 0 -4 7 -8 15 -8 11 0 14 7 11 24 -2 13 -2 27 2 30 3
4 7 13 8 21 3 18 -71 21 -82 4z"/>
<path d="M1435 2880 c-3 -5 5 -15 19 -21 l25 -12 -29 -30 c-18 -19 -26 -35
-21 -40 13 -13 31 1 24 18 -3 9 1 15 10 15 8 0 20 7 27 15 10 12 9 20 -4 40
-17 26 -40 33 -51 15z"/>
<path d="M1090 2870 c0 -6 7 -13 16 -17 8 -3 13 -12 10 -19 -3 -8 1 -14 9 -14
8 0 14 -5 13 -11 -3 -12 51 -19 58 -8 2 4 -8 10 -21 13 -14 4 -23 11 -20 16 3
6 -1 10 -10 10 -9 0 -13 5 -9 11 7 12 -12 29 -33 29 -7 0 -13 -5 -13 -10z"/>
<path d="M1780 2870 c0 -5 5 -10 10 -10 13 0 56 -43 53 -52 -2 -4 4 -5 12 -2
8 4 15 8 15 10 0 11 -70 64 -85 64 -3 0 -5 -4 -5 -10z"/>
<path d="M1532 2838 c-22 -34 -18 -64 4 -32 7 10 18 24 24 31 5 7 10 17 10 23
0 20 -18 10 -38 -22z"/>
<path d="M1910 2850 c0 -14 -5 -18 -17 -13 -16 6 -16 5 -5 -10 8 -9 22 -19 33
-22 23 -8 24 -21 3 -42 -11 -11 -12 -19 -5 -26 8 -8 15 -5 24 7 11 16 23 18
63 13 27 -3 59 -9 72 -12 14 -5 22 -3 22 4 0 6 -6 11 -13 11 -8 0 -14 7 -14
15 0 8 7 15 14 15 8 0 12 4 9 9 -3 5 -33 12 -67 16 -44 5 -59 11 -55 20 3 8
-7 18 -26 24 -40 14 -38 14 -38 -9z m85 -50 c13 0 30 -3 39 -6 29 -11 17 -20
-23 -18 -44 2 -88 34 -75 55 5 9 11 7 22 -9 8 -12 25 -22 37 -22z"/>
<path d="M991 2841 c-7 -5 -11 -13 -7 -19 8 -13 -22 -23 -60 -20 -49 3 -131
-50 -103 -68 7 -4 19 2 28 13 17 22 60 47 67 40 5 -5 -77 -87 -87 -87 -5 0
-14 9 -23 21 -18 26 -52 18 -52 -12 0 -17 5 -20 28 -17 35 6 35 -8 1 -44 -14
-15 -23 -31 -19 -35 4 -4 17 5 29 21 15 19 27 25 39 21 15 -6 16 -11 6 -28
-16 -29 -21 -60 -8 -52 5 3 10 12 10 19 0 7 9 21 20 31 17 15 17 19 5 32 -8 8
-20 11 -27 7 -8 -5 -9 -2 -5 10 4 10 7 20 7 22 0 2 9 4 19 4 11 0 22 8 26 18
6 19 69 62 91 62 8 0 14 -7 14 -15 0 -8 -4 -15 -10 -15 -5 0 -10 -4 -10 -10 0
-16 18 -12 40 10 17 17 18 21 5 26 -22 9 -19 44 4 44 26 0 35 16 15 24 -20 8
-26 7 -43 -3z"/>
<path d="M1606 2843 c-11 -11 6 -23 30 -23 14 0 23 4 20 9 -7 11 -43 21 -50
14z"/>
<path d="M1063 2833 c4 -3 -1 -12 -11 -19 -16 -12 -16 -13 1 -20 10 -3 23 -2
28 3 11 11 1 43 -14 43 -6 0 -7 -3 -4 -7z"/>
<path d="M1693 2810 c3 -13 0 -20 -9 -20 -8 0 -14 -4 -14 -10 0 -16 37 -11 44
6 9 24 7 31 -10 38 -13 5 -15 2 -11 -14z"/>
<path d="M1261 2807 c-17 -21 -1 -28 29 -12 19 10 30 11 38 3 5 -5 16 -8 24
-5 8 3 2 9 -15 16 -38 15 -62 14 -76 -2z"/>
<path d="M1767 2814 c-11 -11 3 -24 24 -24 12 0 19 5 17 13 -5 14 -31 21 -41
11z"/>
<path d="M1090 2769 c0 -24 23 -21 28 4 2 10 -3 17 -12 17 -10 0 -16 -9 -16
-21z"/>
<path d="M1832 2779 c2 -6 7 -10 11 -10 4 1 16 1 27 1 11 0 20 5 20 10 0 6
-14 10 -31 10 -17 0 -29 -5 -27 -11z"/>
<path d="M2130 2771 c0 -5 9 -12 19 -16 14 -4 19 -14 17 -33 -4 -42 25 -70 38
-36 3 8 -1 22 -9 30 -8 8 -12 20 -9 28 3 7 -7 18 -21 24 -31 14 -35 15 -35 3z"/>
<path d="M1297 2750 c-3 -11 -1 -22 3 -25 11 -7 32 30 23 39 -11 11 -21 6 -26
-14z"/>
<path d="M1780 2764 c0 -3 7 -12 15 -20 8 -8 12 -21 9 -29 -4 -9 0 -15 8 -15
19 0 16 33 -4 54 -17 16 -28 21 -28 10z"/>
<path d="M1015 2740 c-4 -6 5 -10 19 -10 14 0 26 -4 26 -10 0 -5 6 -10 14 -10
9 0 12 7 9 20 -4 14 -14 20 -34 20 -15 0 -31 -4 -34 -10z"/>
<path d="M1168 2728 c-3 -7 -14 -13 -26 -13 -30 0 -28 -18 3 -21 22 -2 45 18
45 40 0 11 -18 6 -22 -6z"/>
<path d="M1983 2726 c-31 -15 -29 -30 2 -22 18 5 27 1 35 -14 6 -11 17 -20 25
-20 21 0 18 17 -5 30 -11 6 -17 16 -14 25 7 17 -10 18 -43 1z"/>
<path d="M2088 2713 c-29 -7 -20 -23 12 -23 20 0 30 5 30 15 0 15 -9 17 -42 8z"/>
<path d="M2237 2683 c-6 -33 -1 -43 21 -43 15 1 15 2 -2 15 -17 13 -18 15 -3
15 21 0 22 13 3 29 -11 9 -15 6 -19 -16z"/>
<path d="M703 2668 c-35 -6 -53 -14 -53 -24 0 -12 4 -12 21 -4 11 7 23 9 26 6
3 -3 14 -1 24 4 12 7 19 6 22 -3 4 -9 8 -8 16 3 13 18 14 30 4 29 -5 -1 -32
-6 -60 -11z"/>
<path d="M2301 2654 c-17 -12 -20 -19 -11 -28 8 -8 14 -7 21 7 6 9 17 17 25
17 8 0 12 5 9 10 -9 14 -17 13 -44 -6z"/>
<path d="M1680 2652 c0 -12 40 -33 51 -27 14 9 -1 27 -17 21 -8 -3 -14 -1 -14
4 0 6 -4 10 -10 10 -5 0 -10 -3 -10 -8z"/>
<path d="M2160 2634 c0 -9 7 -14 17 -12 25 5 28 28 4 28 -12 0 -21 -6 -21 -16z"/>
<path d="M2340 2613 c-10 -12 -11 -18 -2 -21 7 -2 12 -11 12 -19 0 -17 50 -69
63 -65 5 1 21 -5 37 -15 16 -9 33 -13 37 -9 4 5 2 11 -5 13 -10 4 -10 8 0 20
11 13 7 20 -22 44 -40 34 -43 34 -65 12 -14 -14 -18 -14 -26 -2 -13 21 -11 29
7 29 19 0 13 24 -7 27 -8 2 -21 -5 -29 -14z m117 -84 c-1 -20 -12 -25 -22 -9
-3 5 -12 7 -20 3 -10 -3 -15 1 -15 15 0 22 28 34 47 20 6 -5 11 -18 10 -29z"/>
<path d="M578 2606 c-23 -17 -23 -26 2 -26 13 0 20 7 20 20 0 23 0 23 -22 6z"/>
<path d="M616 2585 c-21 -32 -20 -42 2 -22 10 10 21 14 25 11 3 -4 14 -3 24 1
10 4 27 8 37 9 11 1 21 7 23 14 6 16 -29 16 -45 0 -9 -9 -15 -9 -24 0 -17 17
-24 15 -42 -13z"/>
<path d="M2282 2598 c6 -17 36 -34 45 -24 4 4 -1 14 -11 22 -24 17 -39 18 -34
2z"/>
<path d="M980 2581 c0 -20 17 -37 27 -28 7 8 -7 47 -18 47 -5 0 -9 -9 -9 -19z"/>
<path d="M1169 2588 c-8 -15 -4 -48 5 -45 14 5 21 47 7 47 -6 0 -12 -1 -12 -2z"/>
<path d="M534 2565 c-10 -24 5 -36 27 -24 16 8 18 13 8 25 -15 18 -28 18 -35
-1z"/>
<path d="M730 2569 c0 -6 6 -9 14 -6 7 3 23 -1 34 -8 19 -14 32 -11 32 8 0 5
-7 7 -15 3 -8 -3 -15 -1 -15 4 0 6 -11 10 -25 10 -14 0 -25 -5 -25 -11z"/>
<path d="M2142 2563 c2 -12 14 -19 37 -21 21 -2 31 0 26 7 -3 6 -15 11 -26 11
-10 0 -19 5 -19 10 0 6 -5 10 -11 10 -6 0 -9 -8 -7 -17z"/>
<path d="M496 2525 c-10 -8 -15 -18 -12 -23 7 -11 -33 -49 -57 -54 -23 -4 -26
-22 -5 -26 9 -2 24 6 35 16 10 11 28 25 41 31 13 7 21 18 19 26 -3 7 -1 17 5
23 16 16 -5 22 -26 7z"/>
<path d="M2290 2531 c0 -5 14 -14 30 -20 31 -10 39 -4 18 17 -14 14 -48 16
-48 3z"/>
<path d="M562 2510 c-28 -23 -30 -45 -3 -30 13 7 22 7 26 0 9 -15 25 -12 25 6
0 9 -5 12 -12 8 -8 -5 -9 -2 -5 9 9 24 -5 28 -31 7z"/>
<path d="M2510 2490 c0 -11 7 -20 15 -20 8 0 15 -8 15 -18 0 -28 24 -72 39
-72 9 0 10 4 3 13 -5 6 -13 26 -16 42 -7 29 -37 75 -50 75 -3 0 -6 -9 -6 -20z"/>
<path d="M2280 2463 c0 -19 21 -27 31 -12 13 22 11 28 -11 26 -11 -1 -20 -7
-20 -14z"/>
<path d="M636 2462 c-8 -13 0 -46 12 -50 6 -2 10 9 10 27 -1 30 -11 40 -22 23z"/>
<path d="M2476 2462 c-3 -6 1 -15 9 -22 19 -16 19 -30 0 -30 -17 0 -20 -16 -5
-25 6 -3 17 1 26 9 12 12 13 23 7 43 -10 28 -27 40 -37 25z"/>
<path d="M477 2433 c-25 -24 18 -32 49 -8 18 14 17 14 -12 15 -17 0 -34 -3
-37 -7z"/>
<path d="M2224 2404 c3 -9 6 -20 6 -25 0 -5 4 -9 9 -9 5 0 9 11 9 25 0 15 -6
25 -15 25 -10 0 -13 -6 -9 -16z"/>
<path d="M2604 2391 c14 -27 14 -29 -7 -39 l-22 -11 22 0 c12 -1 23 5 26 12 3
9 7 9 20 -2 10 -8 17 -9 17 -3 0 6 -6 15 -14 19 -7 4 -18 18 -25 31 -6 12 -16
22 -22 22 -5 0 -3 -13 5 -29z"/>
<path d="M325 2341 c-9 -8 -5 -22 4 -17 5 4 11 1 13 -6 5 -15 28 -1 28 17 0
12 -34 17 -45 6z"/>
<path d="M2235 2340 c-8 -13 3 -30 21 -30 18 0 18 14 0 29 -10 8 -16 9 -21 1z"/>
<path d="M2408 2343 c-20 -5 -23 -18 -8 -28 6 -3 17 0 25 9 25 24 21 29 -17
19z"/>
<path d="M611 2316 c-10 -12 -8 -17 9 -26 28 -15 36 -7 17 20 -12 17 -16 18
-26 6z"/>
<path d="M2647 2317 c-3 -8 5 -41 18 -73 17 -43 29 -59 44 -60 32 -2 51 -12
51 -29 0 -8 5 -15 10 -15 6 0 10 5 10 10 0 10 -7 20 -36 53 -6 7 -9 18 -6 25
2 6 -1 12 -8 12 -6 0 -9 -4 -6 -9 7 -11 -18 -33 -27 -24 -4 3 -7 17 -7 29 0
13 -5 26 -11 29 -6 4 -8 13 -5 20 2 7 -1 21 -8 30 -11 16 -14 16 -19 2z"/>
<path d="M427 2313 c-3 -5 -8 -24 -11 -43 l-7 -35 20 25 c11 14 21 30 21 37 0
15 -17 26 -23 16z"/>
<path d="M2578 2312 c-13 -5 -15 -11 -8 -22 8 -12 12 -12 18 -2 5 7 16 10 25
6 12 -4 17 -1 17 10 0 16 -22 20 -52 8z"/>
<path d="M2512 2274 c-20 -22 -4 -38 19 -18 10 9 19 21 19 26 0 13 -24 9 -38
-8z"/>
<path d="M248 2220 c-9 -17 -15 -30 -12 -30 14 0 54 34 54 46 0 24 -24 15 -42
-16z"/>
<path d="M2610 2211 c0 -20 17 -37 27 -28 7 8 -7 47 -18 47 -5 0 -9 -9 -9 -19z"/>
<path d="M288 2215 c-7 -8 3 -55 12 -55 19 0 28 25 16 43 -14 18 -19 20 -28
12z"/>
<path d="M395 2190 c-3 -5 -4 -11 -1 -11 3 -1 11 -3 16 -4 6 -1 14 -3 19 -4 5
0 11 -10 14 -22 3 -12 10 -18 16 -14 16 9 13 35 -4 35 -8 0 -15 5 -15 11 0 5
-4 7 -10 4 -5 -3 -10 -1 -10 4 0 14 -17 14 -25 1z"/>
<path d="M2560 2193 c0 -13 47 -53 53 -46 4 3 -4 16 -16 29 -22 24 -37 30 -37
17z"/>
<path d="M267 2125 c-4 -22 -2 -44 3 -49 13 -13 24 41 13 67 -9 19 -10 17 -16
-18z"/>
<path d="M2684 2143 c15 -55 18 -63 27 -63 8 0 6 28 -7 68 -6 19 -26 14 -20
-5z"/>
<path d="M190 2121 c0 -5 -3 -17 -7 -26 -5 -14 -2 -16 15 -11 11 4 23 2 27 -4
3 -6 11 -8 16 -5 14 9 11 25 -6 25 -8 0 -15 7 -15 15 0 8 -7 15 -15 15 -8 0
-15 -4 -15 -9z"/>
<path d="M2751 2116 c-8 -9 -10 -27 -6 -46 5 -23 3 -30 -9 -30 -9 0 -16 -5
-16 -11 0 -5 -4 -7 -10 -4 -5 3 -10 2 -10 -4 0 -5 5 -13 10 -16 6 -4 8 -11 5
-16 -4 -5 1 -19 9 -31 15 -21 15 -20 10 14 -5 29 -2 38 15 50 17 12 21 21 15
43 -4 18 -2 30 7 36 10 6 11 11 3 19 -8 8 -14 7 -23 -4z"/>
<path d="M320 2101 c0 -12 6 -21 16 -21 9 0 14 7 12 17 -5 25 -28 28 -28 4z"/>
<path d="M2784 2097 c-8 -23 3 -50 19 -44 13 4 11 36 -4 51 -5 6 -11 3 -15 -7z"/>
<path d="M247 2064 c-4 -4 -2 -13 4 -21 9 -9 8 -13 0 -13 -6 0 -11 -10 -11
-23 0 -13 -5 -28 -12 -35 -15 -15 -4 -26 17 -19 8 4 15 18 15 35 0 15 5 33 12
40 10 10 9 15 -3 27 -8 9 -18 12 -22 9z"/>
<path d="M170 2049 c0 -7 -8 -18 -17 -25 -10 -7 -15 -16 -10 -20 4 -4 13 -2
19 4 7 7 21 12 31 12 13 0 17 5 13 16 -3 9 -6 18 -6 20 0 2 -7 4 -15 4 -8 0
-15 -5 -15 -11z"/>
<path d="M2822 2010 c-1 -28 13 -48 25 -37 7 8 -7 67 -16 67 -4 0 -8 -13 -9
-30z"/>
<path d="M2774 1996 c-4 -10 -2 -22 4 -28 8 -8 13 -7 18 6 4 10 2 22 -4 28 -8
8 -13 7 -18 -6z"/>
<path d="M287 1970 c-14 -17 -15 -24 -5 -40 14 -21 28 -26 28 -10 0 6 -4 10
-10 10 -14 0 -13 27 2 32 6 2 9 10 7 16 -3 8 -10 6 -22 -8z"/>
<path d="M147 1958 c-8 -30 2 -37 19 -14 18 25 18 36 0 36 -7 0 -16 -10 -19
-22z"/>
<path d="M2683 1953 c-15 -6 -17 -43 -3 -43 6 0 10 7 10 16 0 8 5 12 10 9 6
-3 10 1 10 9 0 16 -6 18 -27 9z"/>
<path d="M2800 1931 c0 -11 -6 -21 -12 -24 -7 -2 -10 -8 -6 -12 10 -10 50 34
42 46 -9 16 -24 10 -24 -10z"/>
<path d="M2834 1926 c-12 -30 3 -94 28 -121 22 -23 24 -32 18 -78 -8 -54 -4
-77 11 -77 5 0 9 19 9 43 0 24 4 47 9 53 14 14 1 76 -14 70 -8 -3 -18 1 -23 7
-15 19 -24 67 -12 67 15 0 12 26 -5 40 -12 10 -16 9 -21 -4z"/>
<path d="M206 1915 c-3 -8 -16 -15 -29 -15 -33 0 -48 -21 -55 -75 -3 -32 -1
-45 8 -45 8 0 11 9 8 25 -6 27 34 81 51 71 8 -5 41 35 41 49 0 11 -18 4 -24
-10z"/>
<path d="M2750 1899 c1 -22 29 -54 38 -43 5 5 -2 20 -15 33 -15 16 -23 19 -23
10z"/>
<path d="M2707 1866 c-23 -18 -22 -43 3 -51 11 -3 20 -13 20 -21 0 -8 5 -14
10 -14 16 0 12 19 -10 42 -24 26 -26 40 -5 32 8 -4 15 -1 15 4 0 18 -14 21
-33 8z"/>
<path d="M2627 1863 c-13 -12 -7 -23 13 -23 11 0 20 7 20 15 0 15 -21 21 -33
8z"/>
<path d="M190 1825 c0 -9 -6 -12 -15 -9 -17 7 -20 -7 -4 -23 8 -8 16 -6 30 8
23 23 24 39 4 39 -8 0 -15 -7 -15 -15z"/>
<path d="M2787 1824 c-10 -11 2 -24 18 -18 15 6 29 -17 38 -63 6 -32 -10 -49
-40 -44 -7 1 -13 -5 -13 -13 0 -10 7 -14 18 -12 36 8 62 19 62 25 0 14 -22 88
-32 109 -11 21 -37 29 -51 16z"/>
<path d="M155 1748 c8 -33 23 -51 37 -42 4 3 4 13 -1 22 -5 9 -12 25 -15 35
-10 32 -28 19 -21 -15z"/>
<path d="M2773 1773 c-13 -2 -23 -9 -23 -14 0 -16 29 -22 44 -10 11 9 15 9 19
-1 2 -7 7 -10 11 -7 10 9 -4 39 -18 38 -6 -1 -21 -4 -33 -6z"/>
<path d="M70 1758 c0 -9 -3 -23 -6 -32 -3 -9 -1 -16 4 -16 16 0 26 40 13 53
-8 8 -11 7 -11 -5z"/>
<path d="M114 1735 c-4 -8 -3 -23 0 -32 6 -15 8 -15 16 -3 13 20 12 50 0 50
-6 0 -13 -7 -16 -15z"/>
<path d="M2916 1704 c-9 -24 -7 -54 4 -54 6 0 10 16 10 35 0 38 -4 44 -14 19z"/>
<path d="M2710 1701 c0 -9 31 -31 44 -31 3 0 6 7 6 15 0 8 -4 15 -9 15 -5 0
-16 3 -25 6 -9 3 -16 1 -16 -5z"/>
<path d="M569 1696 c-2 -3 -3 -25 -1 -50 4 -41 7 -46 29 -46 l25 0 -8 -160 -7
-160 46 0 46 0 -5 103 c-2 56 -6 130 -9 164 l-4 61 39 7 c37 6 40 9 40 41 l0
34 -79 0 c-44 0 -86 2 -93 5 -8 3 -16 4 -19 1z m95 -68 c-16 -17 -19 -17 -33
-3 -13 13 -14 17 -2 24 7 5 22 6 33 4 18 -5 18 -7 2 -25z"/>
<path d="M1040 1673 c-14 -17 -19 -52 -25 -147 -4 -69 -4 -148 0 -176 8 -60
24 -70 110 -70 83 0 85 2 85 81 0 67 -1 69 -25 69 -22 0 -25 -4 -25 -34 0 -41
-9 -49 -45 -40 -25 6 -25 8 -25 103 0 130 4 141 47 141 l35 0 -4 -55 c-3 -53
-2 -55 22 -55 25 0 25 0 22 87 -2 49 -5 93 -7 100 -2 7 -32 13 -76 15 -64 3
-73 1 -89 -19z m50 -47 c-29 -27 -35 -26 -25 3 4 13 15 21 28 21 21 0 21 0 -3
-24z"/>
<path d="M1402 1599 l4 -99 -28 0 c-15 0 -31 0 -35 0 -4 0 -6 43 -4 95 l3 95
-51 0 -51 0 0 -205 0 -205 45 0 45 0 2 48 c1 26 2 62 1 80 0 30 2 32 33 32
l34 0 0 -80 0 -80 30 0 30 0 0 83 c0 46 -3 138 -6 205 -7 118 -8 120 -32 125
l-24 5 4 -99z m-92 -101 c16 -32 17 -38 4 -48 -8 -7 -14 -18 -14 -26 0 -7 -4
-16 -10 -19 -6 -4 -10 24 -9 77 0 46 3 76 6 68 3 -8 13 -32 23 -52z"/>
<path d="M1500 1669 l0 -31 62 7 c50 6 60 5 55 -6 -111 -260 -128 -306 -122
-338 l6 -34 67 7 c37 3 82 6 100 6 l32 0 0 56 c0 53 -1 56 -22 51 -87 -20
-103 -18 -80 8 16 18 112 253 112 273 0 24 -34 32 -136 32 l-74 0 0 -31z m80
-309 c11 -11 29 -20 39 -20 40 0 32 -20 -8 -21 -23 -1 -47 -2 -53 -3 -14 -1
-22 28 -14 50 7 19 12 18 36 -6z"/>
<path d="M1766 1689 c-8 -20 -34 -230 -41 -326 l-6 -83 24 0 c30 0 37 16 37
81 0 48 1 49 30 49 l30 0 0 -65 0 -65 45 0 45 0 0 83 c0 79 -17 317 -23 323
-1 2 -33 6 -70 10 -52 5 -68 4 -71 -7z m98 -44 c8 -9 13 -22 9 -31 -5 -13 -9
-11 -29 7 -18 17 -21 25 -12 31 17 10 14 10 32 -7z m-46 -44 c8 -5 17 -36 21
-69 7 -59 7 -61 -18 -65 -14 -3 -28 -4 -31 -2 -7 5 1 145 8 145 4 0 13 -4 20
-9z m70 -182 l-3 -34 -19 28 c-15 22 -16 30 -6 42 18 22 32 4 28 -36z"/>
<path d="M1960 1491 l0 -211 46 0 45 0 -3 95 c-3 95 3 110 30 83 7 -7 12 -44
12 -95 l0 -83 40 0 40 0 0 90 c0 78 -3 93 -20 107 -23 20 -26 33 -6 33 19 0
26 22 26 86 0 76 -20 94 -102 94 -35 0 -73 3 -85 6 l-23 6 0 -211z m98 150 c9
-5 12 -25 10 -62 -3 -47 -6 -54 -25 -57 -22 -3 -23 0 -23 62 0 67 7 77 38 57z
m70 -41 c2 -18 -1 -37 -6 -42 -6 -6 -11 7 -13 36 -5 53 14 59 19 6z"/>
<path d="M78 1683 c0 -4 -2 -12 -3 -18 -1 -5 -7 -23 -13 -38 -14 -34 -15 -57
-3 -57 5 0 12 18 16 40 6 34 10 40 26 35 12 -4 21 -1 25 10 8 19 6 20 -23 29
-13 4 -24 4 -25 -1z"/>
<path d="M790 1485 l-1 -205 101 0 101 0 -3 43 -3 42 -57 3 -58 3 0 45 0 46
40 -4 c22 -1 40 0 40 5 2 46 1 47 -45 47 -45 0 -45 0 -45 35 l0 35 60 0 60 0
0 55 0 55 -94 0 -95 0 -1 -205z m145 155 c3 -6 0 -12 -7 -14 -7 -1 -29 -8 -48
-14 -37 -13 -57 -4 -47 22 7 18 92 23 102 6z m-68 -316 c-12 -13 -37 6 -37 28
l0 22 22 -21 c12 -13 19 -25 15 -29z"/>
<path d="M2210 1485 l0 -205 83 0 c82 0 83 0 102 32 15 26 19 58 23 163 6 190
-10 215 -137 215 l-71 0 0 -205z m164 120 c8 -30 7 -45 -4 -45 -5 0 -10 8 -10
18 0 10 -7 27 -15 38 -20 27 -18 36 4 22 11 -7 22 -21 25 -33z m-55 -1 c8 -8
6 -139 -3 -196 -7 -45 -9 -48 -37 -48 l-29 0 0 131 0 132 32 -7 c17 -3 34 -9
37 -12z m58 -147 c-5 -97 -17 -137 -42 -137 -19 0 -19 9 0 30 9 10 20 55 27
109 6 50 13 91 15 91 3 0 3 -42 0 -93z"/>
<path d="M186 1651 c-4 -6 -1 -18 8 -26 27 -27 36 -13 13 20 -10 12 -16 15
-21 6z"/>
<path d="M2900 1622 c0 -11 9 -22 20 -25 13 -3 20 0 20 9 0 7 -9 18 -20 24
-17 9 -20 8 -20 -8z"/>
<path d="M2756 1611 c-7 -10 22 -37 30 -28 9 8 -3 37 -15 37 -5 0 -12 -4 -15
-9z"/>
<path d="M2870 1608 c0 -7 6 -25 14 -40 13 -24 12 -27 -6 -31 -30 -8 -17 -30
18 -31 23 -1 34 5 42 22 8 18 7 22 -8 22 -10 0 -23 13 -30 30 -14 33 -30 49
-30 28z"/>
<path d="M80 1597 c0 -8 9 -22 20 -32 24 -21 28 -1 6 28 -16 20 -26 22 -26 4z"/>
<path d="M260 1567 c0 -7 7 -22 15 -33 12 -16 14 -17 15 -2 0 23 -11 48 -21
48 -5 0 -9 -6 -9 -13z"/>
<path d="M2817 1554 c-4 -4 -7 -15 -7 -25 0 -9 -4 -19 -9 -21 -5 -1 -7 -15 -4
-30 3 -15 9 -25 14 -22 5 3 9 -4 9 -15 0 -23 16 -36 25 -21 3 6 -3 22 -14 36
-22 28 -28 54 -12 54 13 0 23 32 13 42 -5 5 -11 5 -15 2z"/>
<path d="M126 1535 c-4 -11 -12 -28 -17 -37 -12 -23 -11 -28 1 -28 13 0 32 48
27 69 -3 13 -5 12 -11 -4z"/>
<path d="M154 1514 c3 -9 6 -22 6 -30 0 -9 5 -12 10 -9 17 10 12 55 -6 55 -11
0 -14 -5 -10 -16z"/>
<path d="M2850 1477 c0 -14 7 -27 15 -31 10 -3 15 1 15 13 0 10 -7 24 -15 31
-13 11 -15 9 -15 -13z"/>
<path d="M2900 1462 c-6 -15 -15 -36 -21 -46 -9 -16 -8 -22 6 -32 17 -12 17
-15 1 -48 -9 -19 -21 -38 -26 -41 -14 -9 -13 -38 1 -33 6 2 25 28 41 58 l29
55 -6 -44 c-5 -31 -4 -42 4 -37 6 4 11 31 11 60 0 44 -3 54 -16 52 -25 -2 -28
21 -5 41 25 21 26 29 6 37 -11 4 -19 -3 -25 -22z"/>
<path d="M76 1472 c-3 -6 -1 -23 6 -39 l12 -28 4 29 c4 30 -11 56 -22 38z"/>
<path d="M186 1461 c-4 -6 -1 -21 6 -33 l13 -23 3 24 c4 26 -12 49 -22 32z"/>
<path d="M126 1424 c-16 -23 -17 -29 -5 -52 l14 -27 3 38 c2 20 7 37 13 37 5
0 9 7 9 15 0 22 -12 18 -34 -11z"/>
<path d="M308 1444 c-4 -3 -4 -12 -1 -20 3 -8 0 -14 -6 -14 -6 0 -11 -4 -11
-10 0 -17 14 -11 28 11 13 20 4 47 -10 33z"/>
<path d="M56 1404 c-9 -24 -7 -34 8 -34 20 0 29 -43 11 -56 -19 -15 -19 -44 0
-44 8 0 15 9 15 20 0 13 5 18 15 14 8 -4 15 -12 15 -20 0 -20 31 -94 40 -94 4
0 2 18 -3 39 -6 22 -15 37 -20 34 -5 -3 -6 8 -2 27 6 27 5 32 -8 27 -16 -6
-27 11 -27 44 0 10 -4 19 -10 19 -5 0 -10 9 -10 20 0 24 -15 27 -24 4z"/>
<path d="M2804 1377 c-3 -9 -4 -24 -2 -34 3 -16 5 -15 17 6 9 16 10 26 2 34
-7 7 -12 6 -17 -6z"/>
<path d="M2802 1293 c-6 -10 -7 -25 -2 -32 6 -11 11 -8 20 9 8 15 9 25 2 32
-7 7 -14 4 -20 -9z"/>
<path d="M2640 1263 c0 -11 57 -42 64 -35 11 10 6 24 -6 20 -7 -3 -19 1 -26 9
-15 14 -32 17 -32 6z"/>
<path d="M2740 1251 c-5 -11 -10 -24 -10 -30 0 -17 17 -13 24 7 3 9 9 23 12
30 9 20 -14 14 -26 -7z"/>
<path d="M2916 1261 c-4 -6 -13 -8 -20 -5 -8 3 -17 1 -21 -5 -11 -19 25 -25
43 -8 9 9 13 19 10 22 -3 4 -9 2 -12 -4z"/>
<path d="M80 1235 c-10 -18 -10 -29 -3 -36 12 -12 17 -6 27 34 8 34 -6 35 -24
2z"/>
<path d="M2815 1230 c-3 -6 5 -14 19 -20 15 -5 28 -20 32 -35 3 -14 11 -25 16
-25 6 0 7 7 4 16 -4 11 1 18 14 21 12 3 20 14 20 25 0 16 -3 18 -13 10 -9 -8
-21 -7 -41 3 -33 18 -43 18 -51 5z"/>
<path d="M110 1209 c0 -15 7 -32 15 -39 25 -21 28 -5 6 31 -21 34 -21 34 -21
8z"/>
<path d="M177 1193 c-7 -40 3 -49 19 -18 14 26 11 45 -5 45 -5 0 -11 -12 -14
-27z"/>
<path d="M230 1208 c1 -19 29 -53 37 -45 8 8 -17 57 -29 57 -4 0 -8 -6 -8 -12z"/>
<path d="M326 1194 c-6 -24 -2 -43 8 -33 11 10 17 59 8 59 -5 0 -13 -12 -16
-26z"/>
<path d="M86 1171 c-8 -12 3 -41 16 -41 6 0 8 -10 4 -23 -6 -25 2 -67 13 -67
4 0 7 10 7 22 -1 30 27 34 52 8 13 -14 22 -18 27 -11 3 6 -1 14 -9 17 -9 3
-16 12 -16 19 0 18 -32 28 -41 13 -4 -7 -11 -9 -16 -5 -4 5 -2 12 6 16 10 6 7
14 -12 35 -14 15 -28 23 -31 17z"/>
<path d="M2738 1149 c-6 -36 4 -45 23 -22 11 13 11 17 1 20 -6 3 -10 9 -7 13
3 5 1 11 -4 14 -5 3 -11 -8 -13 -25z"/>
<path d="M2827 1124 c-12 -12 4 -24 33 -24 16 0 32 5 35 11 11 16 -3 23 -19
10 -10 -8 -16 -9 -21 -1 -7 11 -19 13 -28 4z"/>
<path d="M240 1080 c6 -11 17 -20 24 -20 8 0 16 9 19 20 3 11 1 20 -4 20 -5 0
-9 -5 -9 -12 0 -9 -3 -9 -12 0 -19 19 -30 14 -18 -8z"/>
<path d="M2780 1085 c0 -8 -4 -15 -10 -15 -5 0 -10 -7 -10 -15 0 -8 5 -15 10
-15 16 0 12 -14 -11 -39 -13 -13 -18 -29 -14 -39 5 -13 9 -10 22 16 8 17 19
32 24 32 14 0 10 40 -3 40 -7 0 -5 5 5 11 21 12 23 39 2 39 -8 0 -15 -7 -15
-15z"/>
<path d="M2838 1068 c-23 -19 -30 -48 -13 -48 9 0 15 -10 15 -26 0 -15 4 -23
11 -19 6 4 9 22 7 40 -1 19 1 37 5 41 21 22 0 31 -25 12z"/>
<path d="M149 1068 c-8 -23 -8 -108 0 -113 7 -4 11 5 11 24 0 34 14 41 29 14
5 -10 12 -15 16 -11 4 3 -5 25 -19 47 -23 36 -34 47 -37 39z"/>
<path d="M222 1023 c7 -15 23 -39 35 -53 13 -14 23 -28 23 -32 0 -5 5 -8 10
-8 18 0 10 21 -19 50 -16 16 -28 37 -27 47 0 9 -7 19 -17 21 -15 3 -16 1 -5
-25z"/>
<path d="M2582 1038 c7 -19 38 -22 38 -4 0 10 -9 16 -21 16 -12 0 -19 -5 -17
-12z"/>
<path d="M300 1010 c0 -5 6 -10 14 -10 8 0 17 -8 20 -17 5 -13 9 -14 19 -4 9
10 8 15 -7 27 -23 16 -46 18 -46 4z"/>
<path d="M2687 1000 c-18 -22 -22 -40 -9 -40 11 0 37 48 31 55 -3 2 -13 -5
-22 -15z"/>
<path d="M2800 986 c0 -20 -49 -76 -66 -76 -8 0 -14 -6 -14 -14 0 -17 50 -9
57 10 3 8 11 14 18 14 7 0 15 14 19 31 8 42 8 49 -4 49 -5 0 -10 -6 -10 -14z"/>
<path d="M177 963 c-11 -10 -8 -81 3 -88 5 -3 12 7 16 22 4 15 12 31 17 35 7
4 6 12 -2 22 -15 17 -24 20 -34 9z"/>
<path d="M300 900 c0 -5 -9 -10 -20 -10 -18 0 -20 -5 -14 -42 8 -58 12 -70 23
-64 5 3 6 20 2 38 -6 27 -3 36 16 51 13 10 21 23 18 28 -8 12 -25 12 -25 -1z"/>
<path d="M2800 901 c0 -6 -13 -18 -30 -28 -16 -9 -30 -22 -30 -27 0 -6 5 -5
12 2 17 17 39 15 32 -3 -7 -17 -40 -20 -49 -5 -8 13 -35 1 -35 -16 0 -8 10
-14 25 -14 14 0 25 -4 25 -10 0 -25 19 -5 43 44 30 61 31 66 17 66 -5 0 -10
-4 -10 -9z"/>
<path d="M2657 863 c-13 -12 -7 -25 8 -19 8 3 15 0 15 -6 0 -9 3 -9 12 0 10
10 10 15 -2 22 -18 12 -25 12 -33 3z"/>
<path d="M222 828 c-15 -15 17 -79 37 -76 9 1 22 -1 29 -5 6 -5 17 -5 22 -2
14 9 1 28 -15 21 -16 -6 -54 34 -48 51 6 16 -12 24 -25 11z"/>
<path d="M502 793 c2 -10 11 -19 21 -21 24 -5 21 15 -4 28 -18 10 -20 9 -17
-7z"/>
<path d="M387 793 c-13 -12 -7 -33 8 -33 8 0 15 9 15 20 0 20 -11 26 -23 13z"/>
<path d="M2568 773 c-20 -5 -23 -18 -8 -28 6 -3 13 1 16 9 9 24 26 8 19 -17
-6 -21 -5 -21 14 2 12 13 21 27 21 32 0 9 -31 10 -62 2z"/>
<path d="M2646 765 c-3 -8 -3 -21 0 -29 3 -8 1 -17 -5 -21 -6 -3 -11 -17 -11
-31 0 -29 -16 -64 -30 -64 -6 0 -10 9 -10 20 0 13 -7 20 -20 20 -11 0 -20 -7
-20 -15 0 -8 4 -15 9 -15 14 0 23 -32 11 -44 -12 -12 -13 -46 -1 -46 15 0 32
27 26 42 -4 9 3 19 18 25 24 11 47 72 47 124 0 18 2 19 15 9 12 -10 13 -16 4
-26 -17 -21 15 -18 36 3 16 15 15 18 -6 34 -13 10 -26 16 -28 13 -2 -2 -10 1
-16 6 -9 8 -14 6 -19 -5z"/>
<path d="M344 756 c-6 -17 2 -36 17 -36 12 0 12 37 -1 45 -6 3 -13 -1 -16 -9z"/>
<path d="M2464 746 c-10 -8 -16 -17 -12 -21 8 -8 48 13 48 25 0 14 -13 12 -36
-4z"/>
<path d="M272 708 c9 -13 26 -25 39 -28 17 -4 24 -14 26 -30 0 -14 1 -31 2
-38 1 -7 5 -11 11 -7 5 3 18 -3 30 -15 25 -25 25 -31 3 -23 -12 4 -8 -5 12
-26 23 -25 31 -29 33 -16 2 9 1 24 -3 33 -3 9 -6 18 -5 20 1 2 -6 14 -14 28
-9 13 -14 24 -11 24 3 0 -1 13 -9 29 -9 16 -13 31 -11 35 3 3 -1 2 -7 -4 -18
-15 -26 -12 -33 10 -5 15 -12 19 -25 15 -10 -3 -21 -1 -25 5 -3 5 -11 10 -17
10 -6 0 -4 -9 4 -22z"/>
<path d="M2557 693 c-13 -12 -7 -20 15 -18 27 2 37 25 11 25 -11 0 -23 -3 -26
-7z"/>
<path d="M465 668 c4 -13 11 -27 16 -32 15 -16 20 0 10 28 -13 32 -35 36 -26
4z"/>
<path d="M2671 671 c-22 -22 -27 -41 -12 -41 11 0 44 50 38 57 -3 2 -15 -5
-26 -16z"/>
<path d="M2400 595 c-13 -16 -6 -50 9 -41 12 8 21 45 11 51 -4 3 -13 -2 -20
-10z"/>
<path d="M572 579 c1 -12 9 -24 16 -27 9 -3 13 3 10 19 -1 12 -9 24 -16 27 -9
3 -13 -3 -10 -19z"/>
<path d="M2513 584 c-7 -19 2 -28 22 -21 19 8 19 23 0 31 -9 3 -18 -1 -22 -10z"/>
<path d="M470 548 c0 -9 -5 -18 -12 -20 -13 -5 -4 -38 11 -38 13 0 21 53 10
65 -6 5 -9 3 -9 -7z"/>
<path d="M510 547 c0 -11 89 -67 106 -67 12 0 1 22 -13 27 -10 4 -35 17 -55
30 -28 17 -38 19 -38 10z"/>
<path d="M2325 513 c7 -31 36 -56 49 -43 5 5 -1 18 -13 31 -11 13 -21 26 -21
31 0 4 -5 8 -11 8 -7 0 -9 -10 -4 -27z"/>
<path d="M2416 515 c-11 -8 -17 -17 -14 -20 7 -8 68 15 68 26 0 14 -33 10 -54
-6z"/>
<path d="M2543 513 c-14 -9 -23 -11 -23 -4 0 6 -4 11 -10 11 -5 0 -10 -10 -10
-23 0 -32 23 -30 57 5 29 30 22 36 -14 11z"/>
<path d="M560 470 c0 -15 33 -50 47 -50 7 0 13 -4 13 -10 0 -5 7 -10 15 -10 8
0 15 7 15 15 0 9 -9 15 -25 15 -18 0 -28 7 -35 25 -9 24 -30 35 -30 15z"/>
<path d="M2450 465 c-10 -12 -10 -18 -1 -29 8 -10 9 -16 1 -21 -5 -3 -10 -11
-10 -18 0 -23 30 19 36 51 7 34 -5 42 -26 17z"/>
<path d="M527 438 c-19 -20 -20 -18 28 -33 8 -2 12 -11 9 -20 -3 -8 -1 -15 6
-15 6 0 8 5 5 10 -10 16 31 12 44 -4 10 -12 8 -15 -11 -18 -22 -4 -22 -5 7
-17 17 -7 42 -20 58 -28 24 -13 27 -12 27 2 0 9 -13 21 -29 26 -16 6 -31 18
-34 28 -2 9 -21 25 -41 35 -20 9 -36 23 -36 31 0 22 -14 23 -33 3z"/>
<path d="M2337 422 c-10 -10 -15 -21 -12 -24 9 -9 55 16 55 30 0 18 -24 15
-43 -6z"/>
<path d="M2172 403 c2 -10 10 -18 18 -18 22 0 18 29 -3 33 -14 3 -18 -1 -15
-15z"/>
<path d="M2240 395 c-11 -13 -8 -15 13 -15 21 0 25 -4 20 -17 -4 -10 -2 -14 5
-9 6 3 14 1 17 -5 4 -6 18 -8 33 -4 16 4 28 1 33 -7 6 -10 11 -10 20 -1 19 19
-1 36 -37 30 -20 -3 -34 -2 -34 4 0 15 -26 39 -43 39 -8 0 -20 -7 -27 -15z"/>
<path d="M720 360 c0 -16 7 -20 30 -20 17 0 30 2 30 5 0 2 -13 11 -30 20 -29
15 -30 15 -30 -5z"/>
<path d="M2100 370 c0 -5 -6 -10 -14 -10 -13 0 -30 -39 -21 -48 7 -8 35 20 35
34 0 8 7 14 15 14 8 0 15 5 15 10 0 6 -7 10 -15 10 -8 0 -15 -4 -15 -10z"/>
<path d="M2203 363 c-22 -8 -14 -23 13 -23 15 0 24 5 22 12 -5 14 -18 18 -35
11z"/>
<path d="M799 343 c5 -10 9 -22 9 -28 0 -5 6 -11 13 -14 8 -2 10 2 6 13 -4 10
-7 24 -7 32 0 8 -7 14 -15 14 -12 0 -13 -4 -6 -17z"/>
<path d="M857 343 c-13 -12 -7 -23 13 -23 11 0 20 7 20 15 0 15 -21 21 -33 8z"/>
<path d="M2115 320 c-4 -7 -2 -16 4 -20 7 -4 13 -17 14 -28 1 -12 10 -25 22
-28 11 -4 23 -11 26 -17 4 -5 14 -7 24 -4 9 4 13 12 10 18 -4 6 -13 8 -21 5
-7 -3 -21 3 -31 12 -16 16 -16 17 5 20 12 2 22 10 22 17 0 9 -6 12 -15 8 -9
-3 -24 2 -34 11 -14 13 -21 14 -26 6z"/>
<path d="M750 281 c0 -10 9 -21 20 -24 23 -6 25 1 6 26 -17 22 -26 22 -26 -2z"/>
<path d="M890 290 c0 -5 5 -10 11 -10 7 0 18 -8 25 -17 7 -10 16 -15 20 -10 4
4 -2 16 -14 27 -23 22 -42 26 -42 10z"/>
<path d="M2027 293 c-13 -12 -7 -33 9 -33 8 0 12 -4 9 -10 -3 -5 -1 -10 5 -10
7 0 9 7 6 16 -3 9 -6 22 -6 30 0 15 -12 19 -23 7z"/>
<path d="M1798 284 c-11 -10 4 -44 19 -44 10 0 13 6 9 16 -3 9 -6 20 -6 25 0
10 -14 12 -22 3z"/>
<path d="M2200 281 c0 -9 60 -19 79 -13 27 9 7 22 -34 22 -25 0 -45 -4 -45 -9z"/>
<path d="M2062 236 c-17 -18 -32 -39 -32 -47 0 -9 8 -5 20 11 15 19 20 21 20
9 0 -32 -28 -44 -78 -32 -26 5 -55 13 -64 18 -13 5 -18 3 -18 -9 0 -10 11 -19
30 -22 17 -4 30 -10 30 -15 0 -12 27 -11 73 2 20 5 37 16 37 24 0 21 35 37 65
29 19 -5 25 -2 25 10 0 12 -10 16 -36 16 -28 0 -35 3 -31 15 11 27 -8 23 -41
-9z"/>
<path d="M1863 245 c-7 -20 2 -29 21 -22 9 4 13 13 10 22 -8 19 -23 19 -31 0z"/>
<path d="M850 231 c0 -11 39 -25 47 -18 3 3 2 10 -2 16 -8 13 -45 15 -45 2z"/>
<path d="M1307 223 c-14 -13 -6 -23 18 -23 16 0 25 6 25 15 0 15 -31 21 -43 8z"/>
<path d="M940 201 c0 -8 52 -23 59 -16 1 2 0 8 -4 14 -8 13 -55 15 -55 2z"/>
<path d="M1060 200 c0 -5 16 -10 36 -10 21 0 33 4 29 10 -3 6 -19 10 -36 10
-16 0 -29 -4 -29 -10z"/>
<path d="M1742 198 c5 -15 57 -18 61 -4 1 5 -13 10 -31 12 -24 3 -32 0 -30 -8z"/>
<path d="M896 192 c-8 -14 28 -43 55 -45 13 -1 30 -7 37 -14 7 -7 21 -13 30
-13 13 1 10 7 -12 26 -17 15 -36 24 -48 21 -11 -3 -26 3 -37 15 -11 11 -22 15
-25 10z"/>
<path d="M1201 171 c-13 -23 -6 -30 20 -24 21 6 21 6 13 27 -8 21 -21 20 -33
-3z"/>
<path d="M1846 161 c-16 -18 -16 -19 16 -16 18 2 35 4 37 4 6 1 -21 31 -29 31
-4 0 -15 -8 -24 -19z"/>
<path d="M1022 155 c11 -12 33 -18 67 -19 61 -1 69 18 8 21 -23 1 -53 5 -67 9
-24 6 -24 6 -8 -11z"/>
<path d="M1332 133 c2 -12 -8 -21 -32 -29 -19 -6 -36 -19 -38 -28 -4 -20 12
-21 28 -1 17 21 37 19 73 -7 22 -16 48 -22 99 -25 44 -2 67 1 63 7 -3 5 -13
10 -21 10 -8 0 -17 7 -20 15 -4 8 -12 15 -20 15 -8 0 -11 -6 -8 -15 5 -11 -1
-15 -19 -15 -13 0 -30 7 -37 15 -7 8 -19 15 -26 15 -9 0 -14 11 -14 30 0 20
-5 30 -15 30 -10 0 -15 -7 -13 -17z"/>
<path d="M1155 130 c-7 -11 -4 -12 40 -14 26 -1 30 -4 28 -28 -1 -19 3 -28 13
-28 9 0 14 10 14 28 0 23 -6 30 -33 40 -41 15 -54 15 -62 2z"/>
<path d="M1897 128 c-7 -20 -86 -41 -102 -28 -17 14 -32 -7 -16 -23 11 -11
117 9 127 25 3 4 17 8 31 8 21 0 24 2 13 15 -15 18 -46 20 -53 3z"/>
<path d="M1056 121 c-9 -14 42 -34 70 -27 13 4 27 0 34 -9 7 -8 21 -15 32 -15
18 0 18 1 3 17 -9 9 -39 18 -68 21 -29 3 -55 9 -58 14 -4 6 -9 6 -13 -1z"/>
<path d="M1420 118 c0 -10 67 -21 79 -13 22 13 10 21 -34 20 -25 0 -45 -3 -45
-7z"/>
<path d="M1600 120 c0 -5 -12 -10 -26 -10 -27 0 -61 -26 -49 -38 4 -4 10 -1
12 6 7 20 20 14 27 -13 4 -14 13 -25 20 -25 19 0 30 32 14 41 -9 6 -8 10 5 15
18 7 24 34 7 34 -5 0 -10 -4 -10 -10z"/>
<path d="M1660 116 c0 -8 -5 -16 -11 -18 -13 -4 -22 -58 -11 -58 18 1 32 18
26 34 -5 12 -1 19 15 23 27 7 28 33 1 33 -11 0 -20 -6 -20 -14z"/>
<path d="M1711 97 c-14 -6 -26 -18 -29 -24 -6 -20 33 -15 51 5 30 33 20 41
-22 19z"/>
</g>
</svg>
