<?xml version="1.0" standalone="no"?>
<!DOCTYPE svg PUBLIC "-//W3C//DTD SVG 20010904//EN"
 "http://www.w3.org/TR/2001/REC-SVG-20010904/DTD/svg10.dtd">
<svg version="1.0" xmlns="http://www.w3.org/2000/svg"
 width="300.000000pt" height="88.000000pt" viewBox="0 0 300.000000 88.000000"
 preserveAspectRatio="xMidYMid meet">
<metadata>
Created by potrace 1.10, written by Peter Selinger 2001-2011
</metadata>
<g transform="translate(0.000000,88.000000) scale(0.100000,-0.100000)"
fill="#000000" stroke="none">
<path d="M1518 805 l-3 -45 40 1 c22 0 64 4 93 8 36 5 52 4 49 -3 -3 -6 -48
-116 -102 -245 -91 -218 -97 -237 -92 -284 4 -27 8 -50 9 -51 2 -1 72 0 156 2
l152 4 0 87 0 88 -76 -14 c-42 -8 -78 -13 -80 -10 -2 2 36 98 86 213 58 134
90 222 90 245 l0 36 -61 7 c-34 3 -106 6 -159 6 l-98 0 -4 -45z m260 -1 c32
-9 27 -27 -69 -249 -43 -101 -79 -190 -79 -198 0 -31 36 -49 92 -45 l53 3 0
-40 0 -40 -85 -6 c-114 -7 -144 -1 -148 32 -2 14 20 81 49 150 134 323 141
343 130 361 -23 36 -2 47 57 32z"/>
<path d="M1950 843 c-25 -4 -26 -6 -48 -181 -12 -97 -27 -231 -32 -297 -6 -66
-12 -132 -15 -147 -4 -27 -3 -28 39 -28 l44 0 6 42 c3 24 8 72 12 106 l7 64
30 -6 c16 -3 36 -6 43 -6 11 0 14 -22 14 -101 l0 -102 46 7 c26 3 58 6 72 6
l25 0 -7 173 c-6 153 -25 460 -29 463 -6 5 -187 11 -207 7z m168 -48 c10 -9
32 -360 30 -455 -3 -94 -3 -95 -28 -95 -24 0 -25 4 -30 65 -6 78 -19 103 -61
120 l-31 13 33 11 c56 18 71 77 48 187 -15 69 -50 103 -98 95 -33 -5 -33 -5
-27 26 3 18 12 36 19 41 12 8 135 2 145 -8z m-80 -141 c7 -24 12 -71 12 -103
l0 -59 -42 -4 c-24 -3 -44 -4 -46 -3 -1 1 0 51 4 112 l7 109 27 -4 c22 -3 28
-11 38 -48z m-83 -193 l24 -18 -34 -33 -34 -32 4 38 c1 22 3 45 4 52 1 16 9
15 36 -7z"/>
<path d="M2240 843 c0 -2 0 -148 0 -325 l-1 -323 68 -1 68 -2 -4 149 c-3 160
-1 167 47 133 19 -13 22 -24 22 -88 0 -40 3 -101 6 -135 l7 -61 52 0 53 0 7
119 c9 149 4 174 -43 206 -31 21 -33 25 -16 30 46 15 49 21 57 109 15 157 -7
179 -195 186 -70 3 -128 4 -128 3z m267 -69 c24 -24 25 -30 20 -101 -5 -65
-10 -80 -34 -105 -23 -24 -25 -31 -15 -46 49 -68 52 -77 52 -157 0 -93 -7
-125 -26 -125 -17 0 -22 24 -27 133 -3 80 -6 90 -32 117 -34 36 -74 40 -93 9
-12 -18 -22 -121 -22 -225 0 -38 -22 -50 -46 -27 -14 14 -15 34 -10 142 3 69
5 144 6 165 l0 40 28 -27 c40 -38 82 -36 117 5 25 29 27 38 23 100 -3 50 -9
75 -26 98 l-23 30 41 0 c31 0 47 -7 67 -26z m-121 -12 c17 -11 26 -49 25 -110
0 -62 -3 -67 -47 -76 l-32 -7 -4 93 c-3 51 -3 96 -1 101 5 9 45 9 59 -1z"/>
<path d="M44 809 c3 -17 6 -48 6 -69 0 -35 2 -38 35 -44 l35 -7 0 -249 0 -250
66 0 67 0 -6 118 c-4 64 -10 181 -13 259 l-7 142 39 6 c93 15 93 16 78 94 l-6
31 -150 0 -150 0 6 -31z m244 -9 c6 0 12 -9 12 -20 0 -14 -9 -21 -35 -26 -20
-3 -44 -17 -56 -32 -18 -24 -20 -35 -14 -156 3 -72 7 -174 8 -226 2 -92 1 -95
-20 -98 l-23 -3 0 225 0 225 -35 28 c-24 20 -35 36 -35 55 0 31 16 35 120 31
36 -1 71 -3 78 -3z"/>
<path d="M400 783 c0 -32 -3 -175 -7 -319 l-6 -261 114 -6 c63 -4 134 -7 159
-7 l45 0 0 70 0 69 -90 3 -90 3 -3 68 -3 67 72 0 c61 0 70 2 65 16 -3 9 -6 28
-6 42 l0 27 -72 -3 -73 -3 3 55 4 56 94 0 95 0 -3 88 -3 87 -147 3 -148 4 0
-59z m241 7 c19 -11 25 -43 13 -74 -5 -12 -21 -16 -74 -16 -62 0 -71 -2 -89
-26 -32 -40 -29 -116 4 -142 l25 -20 -19 -34 c-13 -24 -18 -48 -16 -87 5 -79
30 -98 136 -100 28 -1 38 -6 42 -21 9 -35 -16 -43 -120 -36 -59 4 -100 11
-106 19 -9 13 -2 521 8 537 8 13 171 13 196 0z"/>
<path d="M792 828 c-34 -44 -42 -80 -43 -200 -1 -68 -4 -154 -8 -193 -4 -44
-1 -97 8 -141 12 -65 16 -71 45 -83 55 -21 186 -26 229 -8 l37 16 0 105 0 106
-40 0 -39 0 -3 -57 -3 -58 -51 -3 -52 -3 -6 45 c-7 42 -3 128 10 284 l6 62 54
0 54 0 0 -91 0 -90 38 3 c22 2 37 8 36 16 -1 6 -2 72 -2 145 -2 133 -2 134
-27 145 -36 17 -230 16 -243 0z m226 -76 c3 -40 2 -43 -16 -33 -32 17 -84 22
-112 11 -47 -19 -53 -42 -58 -225 -5 -170 -4 -171 20 -199 20 -24 33 -29 70
-30 31 -1 52 5 65 16 26 24 33 23 33 -5 0 -50 -19 -60 -108 -55 -109 6 -129
25 -133 123 -4 89 15 384 27 413 l13 33 98 -3 98 -3 3 -43z"/>
<path d="M1107 681 c-3 -87 -3 -233 0 -325 l6 -166 68 0 69 0 0 124 0 123 47
7 c25 3 47 5 49 3 1 -1 4 -60 6 -130 l3 -128 48 3 c26 2 48 6 48 11 3 18 -12
518 -17 575 l-6 62 -40 0 -41 0 7 -77 c3 -43 7 -111 8 -152 l1 -75 -56 -3 -57
-3 6 155 7 155 -75 0 -75 0 -6 -159z m109 34 c1 -44 2 -102 3 -129 1 -39 6
-53 29 -74 l28 -26 -27 -25 c-25 -24 -28 -35 -34 -121 -6 -103 -18 -124 -55
-100 -12 7 -14 51 -15 267 0 142 3 266 7 276 6 13 16 17 35 15 28 -3 28 -4 29
-83z m188 -201 c11 -29 7 -124 -6 -124 -6 0 -9 3 -5 6 10 10 -15 64 -35 75
-20 11 -20 11 3 35 26 28 35 30 43 8z m5 -201 c-2 -70 -6 -63 -11 20 -2 26 0
47 4 47 5 0 7 -30 7 -67z"/>
<path d="M2630 718 c0 -68 -3 -214 -7 -325 l-6 -203 90 0 c151 0 181 7 208 49
33 51 50 197 42 367 -6 121 -8 137 -32 172 -33 50 -72 62 -199 62 l-96 0 0
-122z m228 68 c52 -27 57 -51 56 -260 -1 -281 -11 -298 -164 -294 -84 3 -85 3
-88 30 -3 27 -3 28 42 22 60 -9 88 0 108 33 31 54 43 335 15 392 -8 17 -27 31
-55 41 -39 13 -46 13 -72 -2 -26 -15 -28 -15 -33 2 -10 39 10 50 89 50 45 0
86 -6 102 -14z m-57 -101 c10 -47 8 -161 -4 -270 l-12 -100 -47 0 -48 -1 0 72
c0 39 3 131 6 205 l7 135 46 -6 c41 -4 46 -8 52 -35z"/>
<path d="M40 63 l0 -23 1460 0 1460 0 0 23 0 22 -1460 0 -1460 0 0 -22z"/>
</g>
</svg>
